<svg xmlns="http://www.w3.org/2000/svg" version="1.1" xmlns:xlink="http://www.w3.org/1999/xlink" xmlns:svgjs="http://svgjs.dev/svgjs" width="1500" height="1500" viewBox="0 0 1500 1500"><rect width="1500" height="1500" fill="#ffffff"></rect><g transform="matrix(0.6666666666666666,0,0,0.6666666666666666,249.39393939393938,660.481703415674)"><svg viewBox="0 0 396 71" data-background-color="#ffffff" preserveAspectRatio="xMidYMid meet" height="268" width="1500" xmlns="http://www.w3.org/2000/svg" xmlns:xlink="http://www.w3.org/1999/xlink"><g id="tight-bounds" transform="matrix(1,0,0,1,0.2400000000000091,0.0735021874280335)"><svg viewBox="0 0 395.52 70.85299562514392" height="70.85299562514392" width="395.52"><g><svg viewBox="0 0 395.52 70.85299562514392" height="70.85299562514392" width="395.52"><g><svg viewBox="0 0 395.52 70.85299562514392" height="70.85299562514392" width="395.52"><g id="textblocktransform"><svg viewBox="0 0 395.52 70.85299562514392" height="70.85299562514392" width="395.52" id="textblock"><g><svg viewBox="0 0 395.52 70.85299562514392" height="70.85299562514392" width="395.52"><g transform="matrix(1,0,0,1,0,0)"><svg width="395.52" viewBox="4.05 -38.3 218.13 38.9" height="70.85299562514392" data-palette-color="#113f67"><g class="wordmark-text-0" data-fill-palette-color="primary" id="text-0"><path d="M15.95 0.6Q13.15 0.6 10-0.15 6.85-0.9 4.05-2.2L4.05-2.2 4.05-8.6Q10.55-5.1 15.65-5.1L15.65-5.1Q18.2-5.1 19.78-6.2 21.35-7.3 21.35-9.3L21.35-9.3Q21.35-10.7 20.48-11.68 19.6-12.65 18.3-13.28 17-13.9 14.6-14.8L14.6-14.8Q11.35-16 9.3-17.1 7.25-18.2 5.8-20.23 4.35-22.25 4.35-25.45L4.35-25.45Q4.35-30.15 7.6-32.77 10.85-35.4 16.5-35.4L16.5-35.4Q19.15-35.4 21.7-34.83 24.25-34.25 26.4-33.15L26.4-33.15 26.4-26.9Q21.35-29.7 16.65-29.7L16.65-29.7Q14.05-29.7 12.58-28.78 11.1-27.85 11.1-26.15L11.1-26.15Q11.1-24.45 12.63-23.48 14.15-22.5 17.35-21.35L17.35-21.35Q20.7-20.1 22.85-18.95 25-17.8 26.58-15.63 28.15-13.45 28.25-10L28.25-10Q28.25-5.05 24.9-2.23 21.55 0.6 15.95 0.6L15.95 0.6ZM43.75-35.4L43.75-26.1 49.75-26.1 49.75-21.2 43.75-21.2 43.75-8.6Q43.75-4.8 46.65-4.8L46.65-4.8Q48-4.8 49.8-5.75L49.8-5.75 49.8-0.3Q48.55 0.15 47.47 0.38 46.4 0.6 45.05 0.6L45.05 0.6Q37.15 0.6 37.15-8.6L37.15-8.6 37.15-21.2 33.35-21.2 33.35-26.1 37.15-26.1 37.15-33.1 43.75-35.4ZM68.7-26.7L70.34-26.7 70.34-20.2 69.5-20.2Q65.59-20.2 63.15-18.05L63.15-18.05 63.15 0 56.55 0 56.55-20.3 55.45-26.1 62.05-26.1 62.7-22.65Q64.34-24.9 65.7-25.8 67.05-26.7 68.7-26.7L68.7-26.7ZM100.49-13.05L100.49-11.05 82.34-11.05Q82.74-8.05 84.57-6.45 86.39-4.85 89.44-4.85L89.44-4.85Q91.69-4.85 94.32-5.68 96.94-6.5 99.19-7.95L99.19-7.95 99.39-7.95 99.39-2.6Q97.39-1.05 94.82-0.23 92.24 0.6 89.39 0.6L89.39 0.6Q85.29 0.6 82.24-1.05 79.19-2.7 77.54-5.8 75.89-8.9 75.89-13.05L75.89-13.05Q75.89-17.1 77.47-20.2 79.04-23.3 81.89-25 84.74-26.7 88.49-26.7L88.49-26.7Q92.14-26.7 94.87-25.05 97.59-23.4 99.04-20.3 100.49-17.2 100.49-13.05L100.49-13.05ZM88.49-21.4Q86.14-21.4 84.57-19.85 82.99-18.3 82.44-15.55L82.44-15.55 93.69-15.55Q93.29-18.4 91.99-19.9 90.69-21.4 88.49-21.4L88.49-21.4ZM129.99 0L123.39 0 122.74-3.15Q119.19 0.6 114.19 0.6L114.19 0.6Q110.24 0.6 107.77-1.45 105.29-3.5 105.29-6.85L105.29-6.85Q105.29-11.2 108.52-13.63 111.74-16.05 117.84-16.05L117.84-16.05Q120.04-16.05 122.24-15.85L122.24-15.85 122.24-16.8Q122.24-19 120.99-20.08 119.74-21.15 117.04-21.15L117.04-21.15Q114.39-21.15 112.12-20.28 109.84-19.4 107.19-17.45L107.19-17.45 107.19-23.35Q109.49-25.1 111.99-25.9 114.49-26.7 117.49-26.7L117.49-26.7Q123.04-26.7 125.97-24.33 128.89-21.95 128.89-17.4L128.89-17.4 128.89-5.8 129.99 0ZM111.89-7.35Q111.89-4.45 115.19-4.45L115.19-4.45Q117.09-4.45 118.79-5.23 120.49-6 122.24-7.7L122.24-7.7 122.24-11.25 117.44-11.25Q114.54-11.25 113.22-10.4 111.89-9.55 111.89-7.35L111.89-7.35ZM166.24-26.7Q169.99-26.7 172.26-24.38 174.54-22.05 174.54-18.25L174.54-18.25 174.54 0 167.94 0 167.94-14.5Q167.94-17.9 167.04-19.38 166.14-20.85 164.04-20.85L164.04-20.85Q161.49-20.85 158.79-18L158.79-18 158.79 0 152.19 0 152.19-14.5Q152.19-17.9 151.29-19.38 150.39-20.85 148.29-20.85L148.29-20.85Q145.74-20.85 143.04-18L143.04-18 143.04 0 136.44 0 136.44-20.3 135.34-26.1 141.39-26.1 142.34-22.75Q144.34-24.85 146.29-25.78 148.24-26.7 150.49-26.7L150.49-26.7Q152.99-26.7 154.91-25.58 156.84-24.45 157.84-22.5L157.84-22.5Q159.94-24.75 161.91-25.73 163.89-26.7 166.24-26.7L166.24-26.7ZM185.99-30Q184.29-30 183.09-31.15 181.89-32.3 181.89-34.15L181.89-34.15Q181.89-36 183.09-37.15 184.29-38.3 185.99-38.3L185.99-38.3Q187.69-38.3 188.89-37.15 190.09-36 190.09-34.15L190.09-34.15Q190.09-32.3 188.89-31.15 187.69-30 185.99-30L185.99-30ZM182.69-26.05L189.29-26.1 189.29 0 182.69 0 182.69-26.05ZM208.98 0.6Q205.03 0.6 202.03-1.07 199.03-2.75 197.41-5.85 195.78-8.95 195.78-13.05L195.78-13.05Q195.78-17.15 197.41-20.25 199.03-23.35 202.03-25.03 205.03-26.7 208.98-26.7L208.98-26.7Q212.93-26.7 215.93-25.03 218.93-23.35 220.56-20.25 222.18-17.15 222.18-13.05L222.18-13.05Q222.18-8.95 220.56-5.85 218.93-2.75 215.93-1.07 212.93 0.6 208.98 0.6L208.98 0.6ZM208.98-4.85Q211.93-4.85 213.58-6.98 215.23-9.1 215.23-13.05L215.23-13.05Q215.23-17.05 213.58-19.15 211.93-21.25 208.98-21.25L208.98-21.25Q206.03-21.25 204.38-19.15 202.73-17.05 202.73-13.05L202.73-13.05Q202.73-9.1 204.38-6.98 206.03-4.85 208.98-4.85L208.98-4.85Z" fill="#113f67" data-fill-palette-color="primary"></path></g></svg></g></svg></g></svg></g></svg></g><g></g></svg></g><defs></defs></svg><rect width="395.52" height="70.85299562514392" fill="none" stroke="none" visibility="hidden"></rect></g></svg></g></svg>